<?xml version="1.0" encoding="iso-8859-1"?>
<!-- Generator: Adobe Illustrator 19.0.0, SVG Export Plug-In . SVG Version: 6.00 Build 0)  -->
<svg version="1.1" id="Capa_1" xmlns="http://www.w3.org/2000/svg" xmlns:xlink="http://www.w3.org/1999/xlink" x="0px" y="0px"
	 viewBox="0 0 512 512" style="enable-background:new 0 0 512 512;" xml:space="preserve">
<g>
	<rect x="116" y="336" style="fill:#48BD80;" width="280" height="126"/>
	<path style="fill:#48BD80;" d="M376,70c-23.268,0-210.713,0-240,0l-20,60v126h280V130L376,70z"/>
</g>
<path style="fill:#FEE377;" d="M336,256c0-44.178-35.819-80-80-80c-44.18,0-80,35.82-80,80h-60v80h60c0,44.18,35.82,80,80,80
	s80-35.82,80-80h60v-80H336z"/>
<g>
	<path style="fill:#CCEEFF;" d="M396,462l-8.94,17.89c-6.78,13.55-20.63,22.11-35.78,22.11H160.72c-15.15,0-29-8.56-35.78-22.11
		L116,462H396z"/>
	<path style="fill:#CCEEFF;" d="M306,10c-16.57,0-30,13.43-30,30c0,6.31,1.95,17.98,5.28,30h49.44c3.33-12.02,5.28-23.69,5.28-30
		C336,23.43,322.57,10,306,10z"/>
	<circle style="fill:#CCEEFF;" cx="256" cy="296" r="40"/>
</g>
<path d="M156,140c5.52,0,10-4.48,10-10c0-5.52-4.48-10-10-10s-10,4.48-10,10C146,135.52,150.48,140,156,140z"/>
<path d="M106.003,129.936c0,0.021-0.003,0.042-0.003,0.064v332c0,3.895,1.234,4.21,9.997,22.364
	C124.526,501.411,141.663,512,160.72,512h190.56c19.057,0,36.194-10.589,44.726-27.641C405.174,465.99,406,465.36,406,462V130
	c0-3.741-1.73-5.383-16.126-50H396c5.523,0,10-4.478,10-10s-4.477-10-10-10c-9.506,0-39.191,0-52.574,0
	C345.059,52.127,346,44.993,346,40c0-22.056-17.944-40-40-40s-40,17.944-40,40c0,4.993,0.941,12.127,2.574,20
	c-23.08,0-129.33,0-152.574,0c-5.523,0-10,4.478-10,10s4.477,9.9,10,9.9h6.126C107.553,124.836,106.026,126.351,106.003,129.936z
	 M143.208,80c34.572,0,190.189,0,225.585,0l13.333,40H196c-5.523,0-10,4.478-10,10s4.477,10,10,10h190v106h-40.566
	c-4.937-44.903-42.956-80-89.434-80c-46.246,0-84.451,35.063-89.441,80H126V131.623L143.208,80z M386,266v60h-40v-60H386z M326,336
	c0,38.598-31.402,70-70,70s-70-31.402-70-70v-80c0-38.598,31.402-70,70-70c38.612,0,70,31.246,70,70V336z M166,326h-40v-60h40V326z
	 M126,346h40.559c4.991,44.937,43.196,80,89.441,80s84.451-35.063,89.441-80H386v106H126V346z M378.117,475.415
	C372.999,485.645,362.715,492,351.28,492H160.72c-11.435,0-21.719-6.355-26.835-16.58l-1.709-3.42h247.647L378.117,475.415z M286,40
	c0-11.028,8.972-20,20-20s20,8.972,20,20c0,3.657-0.971,11.03-3.053,20h-33.893C286.971,51.03,286,43.657,286,40z"/>
<path d="M256,246c-27.57,0-50,22.43-50,50s22.43,50,50,50s50-22.43,50-50S283.57,246,256,246z M256,326c-16.542,0-30-13.458-30-30
	s13.458-30,30-30s30,13.458,30,30S272.542,326,256,326z"/>
<g>
</g>
<g>
</g>
<g>
</g>
<g>
</g>
<g>
</g>
<g>
</g>
<g>
</g>
<g>
</g>
<g>
</g>
<g>
</g>
<g>
</g>
<g>
</g>
<g>
</g>
<g>
</g>
<g>
</g>
</svg>
