<svg id="Layer_1" enable-background="new 0 0 512 512" height="512" viewBox="0 0 512 512" width="512" xmlns="http://www.w3.org/2000/svg"><g><g><path clip-rule="evenodd" d="m196.958 50.925h-175.929c-4.76 0-8.665 3.905-8.665 8.666v18.557h184.595l8.494-13.625z" fill="#ce9874" fill-rule="evenodd"/></g><g><path clip-rule="evenodd" d="m196.958 78.147h-184.595v18.528c0 4.789 3.905 8.694 8.665 8.694h175.93l12.542-11.744z" fill="#ce9874" fill-rule="evenodd"/></g><g><path clip-rule="evenodd" d="m233.102 39.266v-2.28c0-8.609-8.124-15.649-18.072-15.649s-18.072 7.041-18.072 15.649v2.28 33.094 33.066 106.781h36.144z" fill="#ffd772" fill-rule="evenodd"/></g><g><path clip-rule="evenodd" d="m233.102 36.985c0-8.609-8.124-15.649-18.072-15.649-1.938 0-3.791.285-5.53.77 7.24 2.024 9.207 7.953 9.207 14.88v2.28 33.094 33.066 106.781h14.395v-106.78-33.067-33.094z" fill="#fdb440" fill-rule="evenodd"/></g><g><path clip-rule="evenodd" d="m269.217 212.207v-175.222c0-.114 0-.2 0-.314-.171-8.438-8.238-15.336-18.072-15.336-9.92 0-18.043 7.041-18.043 15.649v2.28 33.096 33.066 106.781z" fill="#ffd772" fill-rule="evenodd"/></g><g><path clip-rule="evenodd" d="m305.361 212.207v-175.535c0-8.58-8.152-15.621-18.072-15.621-9.948 0-18.072 7.041-18.072 15.621v.314 175.222h36.144z" fill="#ffd772" fill-rule="evenodd"/></g><g><path clip-rule="evenodd" d="m341.476 212.207v-175.535c0-8.58-8.124-15.621-18.072-15.621-9.92 0-18.043 7.041-18.043 15.621v175.535z" fill="#ffd772" fill-rule="evenodd"/></g><g><path clip-rule="evenodd" d="m269.217 36.985c0-8.609-8.124-15.649-18.072-15.649-1.91 0-3.791.285-5.53.77 7.24 2.024 9.207 7.953 9.207 14.88v2.28 33.094 33.066 106.781h14.395v-106.78-33.067-33.094z" fill="#fdb440" fill-rule="evenodd"/></g><g><path clip-rule="evenodd" d="m305.361 36.985c0-8.609-8.152-15.649-18.072-15.649-1.938 0-3.791.285-5.53.77 7.24 2.024 9.207 7.953 9.207 14.88v2.28 33.094 33.066 106.781h14.395v-106.78-33.067-33.094z" fill="#fdb440" fill-rule="evenodd"/></g><g><path clip-rule="evenodd" d="m341.476 36.985c0-8.609-8.124-15.649-18.072-15.649-1.91 0-3.791.285-5.53.77 7.24 2.024 9.207 7.953 9.207 14.88v2.28 33.094 33.066 106.781h14.395v-106.78-33.067-33.094z" fill="#fdb440" fill-rule="evenodd"/></g><g><path d="m252.627 252.146h-29.388c-4.142 0-7.5-3.358-7.5-7.5s3.357-7.5 7.5-7.5h29.388c4.142 0 7.5 3.358 7.5 7.5s-3.357 7.5-7.5 7.5z"/></g><g><path d="m320.155 252.146h-29.36c-4.142 0-7.5-3.358-7.5-7.5s3.357-7.5 7.5-7.5h29.36c4.142 0 7.5 3.358 7.5 7.5-.001 4.142-3.358 7.5-7.5 7.5z"/></g><g><path clip-rule="evenodd" d="m281.531 197.128-140.527 17.759 41.845 258.143 88.592 7.44 88.592-7.44 41.873-258.143z" fill="#dd636e" fill-rule="evenodd"/></g><g><path clip-rule="evenodd" d="m360.033 473.03h-88.592-88.592v15.735c0 8.666 7.098 15.735 15.734 15.735h145.715c8.665 0 15.734-7.069 15.734-15.735v-15.735z" fill="#90d8f9" fill-rule="evenodd"/></g><g><path clip-rule="evenodd" d="m129.346 185.355c-1.71 0-3.107 1.397-3.107 3.107v11.659c0 8.124 6.642 14.766 14.765 14.766h246.079 14.822c8.095 0 14.737-6.642 14.737-14.766v-11.659c0-1.71-1.368-3.107-3.078-3.107h-6.556-21.464c-85.399 0-170.799 0-256.198 0z" fill="#90d8f9" fill-rule="evenodd"/></g><g><path clip-rule="evenodd" d="m447.285 15.607c-36.229 20.723-62.738 87.882-61.741 169.749l5.33 14.766 16.134-14.766c26.167-121.005 98.597-137.339 92.155-155.326-10.091-28.249-31.583-26.025-51.878-14.423z" fill="#f9f6f6" fill-rule="evenodd"/></g><g><path clip-rule="evenodd" d="m337.457 340.623c0-43.927-29.559-79.53-66.016-79.53-36.429 0-65.988 35.603-65.988 79.53s29.559 79.53 65.988 79.53c36.457 0 66.016-35.603 66.016-79.53z" fill="#ffd772" fill-rule="evenodd"/></g><g><path clip-rule="evenodd" d="m387.083 214.887h-246.079l4.361 26.88h215.38 14.794l-37.483 231.263h21.977l41.873-258.143z" fill="#da4a54" fill-rule="evenodd"/></g><g><path clip-rule="evenodd" d="m337.457 340.623c0-43.927-29.559-79.53-66.016-79.53-4.418 0-8.722.513-12.913 1.511 29.559 7.896 51.679 39.651 51.679 77.648 0 38.625-22.804 70.807-53.075 78.019 4.618 1.226 9.406 1.881 14.309 1.881 36.457.001 66.016-35.602 66.016-79.529z" fill="#fdb440" fill-rule="evenodd"/></g><g><path clip-rule="evenodd" d="m413.564 185.355h-6.556-21.464-8.779c1.682 0 3.078 1.397 3.078 3.107v11.659c0 8.124-6.642 14.766-14.765 14.766h22.005 14.822c8.095 0 14.737-6.642 14.737-14.766v-11.659c.001-1.71-1.368-3.107-3.078-3.107z" fill="#75cef8" fill-rule="evenodd"/></g><g><path clip-rule="evenodd" d="m360.033 488.765v-15.735h-21.977v15.735c0 8.666-7.069 15.735-15.734 15.735h21.977c8.664 0 15.734-7.069 15.734-15.735z" fill="#75cef8" fill-rule="evenodd"/></g><g><path clip-rule="evenodd" d="m391.901 185.355h15.107c26.167-121.004 98.597-137.338 92.155-155.325-2.679-7.497-6.157-12.856-10.233-16.448-11.373 19.869-71.774 50.683-97.029 171.773z" fill="#ecdaec" fill-rule="evenodd"/></g><g><path d="m197.953 340.623c0 47.988 32.966 87.029 73.487 87.029 40.537 0 73.516-39.041 73.516-87.029s-32.98-87.029-73.516-87.029c-40.521 0-73.487 39.042-73.487 87.029zm73.487-72.029c32.267 0 58.517 32.313 58.517 72.03s-26.25 72.03-58.517 72.03c-32.25 0-58.488-32.313-58.488-72.03s26.238-72.03 58.488-72.03z"/><path d="m248.752 352.205c2.801 5.808-1.309 10.305-4.008 12.468-3.232 2.591-3.752 7.31-1.162 10.543 1.481 1.849 3.659 2.81 5.857 2.81 1.645 0 3.302-.539 4.685-1.648 10.05-8.054 13.244-20.1 8.144-30.674-1.275-2.66-2.619-5.132-3.805-7.313-5.585-10.28-7.467-13.743.464-22.405 2.798-3.055 2.589-7.799-.467-10.596-3.055-2.796-7.8-2.588-10.595.467-15.156 16.552-8.475 28.847-2.581 39.695 1.156 2.124 2.349 4.32 3.468 6.653z"/><path d="m288.373 352.519c2.795 5.795-1.317 10.304-4.017 12.477-3.227 2.597-3.739 7.318-1.143 10.545 1.482 1.842 3.655 2.799 5.848 2.799 1.649 0 3.31-.542 4.696-1.657 10.032-8.071 13.221-20.114 8.13-30.671-1.272-2.649-2.611-5.112-3.792-7.285-5.601-10.308-7.489-13.78.454-22.456 2.798-3.055 2.589-7.799-.467-10.596-3.055-2.796-7.8-2.588-10.595.467-15.169 16.566-8.476 28.881-2.572 39.747 1.152 2.118 2.342 4.307 3.458 6.63z"/><path d="m506.226 27.507c-4.725-13.23-12.191-21.812-22.19-25.51-11.303-4.18-24.921-1.792-40.474 7.099-38.955 22.282-64.886 89.54-65.531 168.763h-29.055v-141.187c0-12.749-11.471-23.121-25.572-23.121-7.039 0-13.423 2.591-18.048 6.775-4.63-4.184-11.02-6.775-18.068-6.775-7.134 0-13.592 2.658-18.235 6.932-4.617-4.108-10.94-6.65-17.91-6.65-7.037 0-13.419 2.596-18.044 6.785-4.631-4.189-11.023-6.785-18.075-6.785-14.1 0-25.569 10.39-25.569 23.149v6.44h-168.423c-8.92 0-16.17 7.25-16.17 16.17v37.079c0 8.93 7.25 16.2 16.17 16.2h168.425v64.988h-60.108c-5.85 0-10.61 4.75-10.61 10.6v11.66c0 10.003 6.629 18.484 15.724 21.286l40.886 252.229v15.131c0 12.812 10.423 23.235 23.234 23.235h145.716c12.811 0 23.234-10.423 23.234-23.235v-15.13l40.914-252.232c9.082-2.804 15.694-11.284 15.694-21.285v-11.66c0-4.873-3.293-8.971-7.766-10.208 17.718-72.364 52.049-102.958 72.878-121.514 12.077-10.759 20.804-18.533 16.973-29.229zm-193.365 9.165c0-4.402 4.828-8.121 10.544-8.121 5.73 0 10.572 3.719 10.572 8.121v141.187h-21.116zm-36.144 0c0-4.402 4.842-8.121 10.572-8.121s10.572 3.719 10.572 8.121v141.187h-21.144zm-36.112.311c0-4.42 4.82-8.15 10.54-8.15 5.73 0 10.57 3.73 10.57 8.15v140.876h-21.109v-140.876zm-25.579-8.149c5.73 0 10.58 3.73 10.58 8.15v140.876h-21.149c0-24.348.002-99.7.002-99.712 0-.015-.002-41.164-.002-41.164-.001-4.421 4.839-8.15 10.569-8.15zm-195.164 30.759c0-.62.55-1.17 1.17-1.17h168.425v12.224h-169.595zm1.17 38.279c-.62 0-1.17-.56-1.17-1.2v-11.025h169.595v12.225zm388.109 102.247c0 4.01-3.25 7.27-7.24 7.27h-105.317c-4.14 0-7.5 3.36-7.5 7.5s3.36 7.5 7.5 7.5h96.507l-39.44 243.142h-57.069c-4.142 0-7.5 3.358-7.5 7.5s3.357 7.5 7.5 7.5h55.951v8.235c0 4.541-3.694 8.235-8.234 8.235h-145.716c-4.54 0-8.234-3.694-8.234-8.235v-8.235h72.284c4.142 0 7.5-3.358 7.5-7.5s-3.357-7.5-7.5-7.5h-73.402l-39.413-243.142h112.817c2.17 0 4.12-.92 5.48-2.4 1.26-1.34 2.02-3.13 2.02-5.1 0-4.14-3.36-7.5-7.5-7.5h-121.627c-4.01 0-7.27-3.26-7.27-7.27v-7.26h275.402v7.26zm70.133-154.582c-20.986 18.695-59.616 53.114-78.233 132.319h-8.01c.651-72.928 24.064-136.341 57.975-155.738 7.921-4.527 19.175-9.251 27.827-6.052 5.601 2.071 10.042 7.556 13.203 16.309-.679 2.398-7.365 8.355-12.762 13.162z"/></g></g></svg>