<svg id="Capa_1" enable-background="new 0 0 512.001 512.001" height="512" viewBox="0 0 512.001 512.001" width="512" xmlns="http://www.w3.org/2000/svg"><g><g><path d="m226.707 225.538 5.157 7.396 8.727 2.664c2.323.707 3.655 3.201 2.947 5.524-.142.51-.425 1.049-.737 1.474l-5.44 7.226.142 9.095c.057 2.437-1.899 4.477-4.363 4.506-.539 0-1.133-.086-1.644-.283l-8.472-2.919-8.642 2.975c-2.323.793-4.845-.454-5.638-2.777-.227-.624-.284-1.246-.227-1.87l.142-8.727-5.469-7.282c-1.502-1.983-1.105-4.761.85-6.263.538-.368 1.105-.651 1.7-.765l8.415-2.578 5.214-7.452c1.416-2.012 4.165-2.521 6.177-1.104.481.31.849.706 1.161 1.16z" fill="#ffc344"/><path d="m312.362 206.752 7.65 10.91 12.864 3.938c3.485 1.048 5.44 4.732 4.392 8.188-.227.765-.652 1.53-1.105 2.153l-8.047 10.683.227 13.459c.057 3.626-2.834 6.602-6.461 6.658-.822 0-1.672-.142-2.437-.397l-12.524-4.334-12.75 4.391c-3.428 1.191-7.168-.651-8.359-4.079-.311-.936-.425-1.898-.339-2.806l.226-12.892-8.103-10.768c-2.182-2.918-1.615-7.027 1.275-9.237.794-.566 1.644-.963 2.522-1.161l12.41-3.796 7.736-11.023c2.068-2.975 6.148-3.684 9.123-1.614.709.48 1.276 1.048 1.7 1.727z" fill="#ffc344"/><path d="m421.535 189.156 9.889 14.083 16.604 5.101c4.477 1.359 7.027 6.091 5.667 10.567-.311.965-.822 1.983-1.417 2.777l-10.399 13.771.311 17.396c.057 4.676-3.683 8.53-8.358 8.615-1.049 0-2.182-.198-3.146-.538l-16.179-5.555-16.462 5.639c-4.448 1.53-9.265-.822-10.795-5.269-.425-1.19-.539-2.438-.425-3.599l.284-16.689-10.484-13.884c-2.805-3.74-2.068-9.095 1.671-11.9.992-.766 2.097-1.247 3.23-1.501l16.037-4.931 9.974-14.224c2.692-3.854 7.962-4.789 11.816-2.097.879.624 1.616 1.388 2.182 2.238z" fill="#ffc344"/><g clip-rule="evenodd" fill-rule="evenodd"><path d="m404.62 298.698v181.113c0 13.573-11.107 24.681-24.68 24.681h-22.696l-15.471-2.806-14.139 2.806h-44.4l-46.978-6.433-51.71 6.433h-44.4l-15.216-2.551-14.394 2.551h-22.697c-13.572 0-24.679-11.107-24.679-24.681v-181.113c0-4.251 3.485-7.765 7.764-7.765h39.611l14.734 4.846 14.875-4.846h44.4l53.665 7.878 45.023-7.878h44.4l14.876 3.996 14.734-3.996h39.612c4.252 0 7.766 3.514 7.766 7.765z" fill="#ff6471"/><path d="m404.62 298.698v181.113c0 13.573-11.107 24.681-24.68 24.681h-22.696l-15.471-2.806-14.139 2.806h-44.4l-46.978-6.433-51.71 6.433h-44.4l-15.216-2.551-14.394 2.551h-22.697c-13.43 0-24.453-10.881-24.679-24.256h288.077c16.009 0 29.128-13.09 29.128-29.099v-160.204h16.491c4.25 0 7.764 3.514 7.764 7.765z" fill="#ff4056"/><path d="m184.545 290.933h98.688v213.559h-98.688z" fill="#60b7ff"/><path d="m327.634 290.933h29.61v213.559h-29.61z" fill="#bbf49b"/><path d="m110.535 290.933h29.61v213.559h-29.61z" fill="#bbf49b"/><path d="m390.962 140.79-8.047-30.063c-3.514-13.091-17.115-20.938-30.205-17.426l-282.154 75.596c-13.119 3.514-20.968 17.113-17.454 30.205l8.047 30.062c1.36 5.015 4.789 6.772 9.521 5.497l38.251-10.257 13.686-6.886 14.904-.766 42.898-11.503 48.82-19.381 46.497-6.149 42.898-11.503 13.317-6.857 15.272-.821 38.252-10.229c4.59-1.246 6.971-4.052 5.497-9.519z" fill="#ff6471"/><path d="m390.962 140.79-8.047-30.063c-3.514-13.091-17.115-20.938-30.205-17.426l-1.247.312c.114.396.227.794.34 1.191l8.047 30.062c1.473 5.468-.907 8.302-5.469 9.52l-297.284 79.648 4.052 15.131c1.36 5.015 4.789 6.772 9.521 5.497l38.251-10.257 13.686-6.886 14.904-.766 42.898-11.503 48.82-19.381 46.497-6.149 42.898-11.503 13.317-6.857 15.272-.821 38.252-10.229c4.59-1.247 6.971-4.053 5.497-9.52z" fill="#ff4056"/><path d="m108.92 224.405 28.59-7.652-16.434-61.4-28.618 7.679z" fill="#bbf49b"/><path d="m180.408 205.251 95.318-25.531-16.434-61.4-95.346 25.528z" fill="#60b7ff"/><path d="m318.624 168.217 28.589-7.678-16.433-61.372-28.59 7.648z" fill="#bbf49b"/><path d="m185.934 92.422 28.59-7.679c7.877-2.097 16.037 2.607 18.134 10.483l7.565 28.192-57.208 15.33-7.565-28.222c-2.097-7.847 2.607-16.007 10.484-18.104z" fill="#62b5fe"/><path d="m233.876 439.435c36.354 0 65.991-18.729 65.991-41.709 0-22.978-29.638-41.736-65.991-41.736-36.325 0-65.962 18.758-65.962 41.736-.001 22.981 29.637 41.709 65.962 41.709z" fill="#ffd15b"/><path d="m274.139 364.66c15.641 7.622 25.728 19.608 25.728 33.066 0 23.037-29.553 41.709-65.991 41.709-31.65 0-58.114-14.111-64.489-32.925 11.135 5.44 25.104 8.67 40.235 8.67 36.438 0 65.991-18.673 65.991-41.708-.001-3.031-.511-5.978-1.474-8.812z" fill="#ffc344"/><path d="m105.386 197.541h29.595v23.437h-29.595z" fill="#9be69d" transform="matrix(.966 -.259 .259 .966 -50.014 38.186)"/><path d="m175.697 169.448h98.677v23.437h-98.677z" fill="#26a6fe" transform="matrix(.966 -.259 .259 .966 -39.209 64.389)"/><path d="m312.561 145.579 6.063 22.638 28.589-7.678-6.063-22.612z" fill="#9be69d"/><path d="m351.237 480.236h-23.603v24.256h29.61v-24.878c-1.927.395-3.938.622-6.007.622z" fill="#9be69d"/><path d="m110.535 480.236h29.61v24.256h-29.61z" fill="#9be69d"/><path d="m184.545 480.236h98.688v24.256h-98.688z" fill="#26a6fe"/></g></g><path d="m229.2 216.13 7.254 10.371 12.24 3.74c3.939 1.189 6.177 5.355 4.987 9.321-.284.936-.765 1.785-1.36 2.551l-7.537 10.03.226 12.778c.057 4.108-3.23 7.509-7.338 7.594-.906 0-1.898-.17-2.692-.453l-11.985-4.108-12.099 4.165c-3.911 1.332-8.161-.737-9.521-4.647-.369-1.048-.454-2.124-.369-3.173l.227-12.155-7.735-10.257c-2.465-3.287-1.814-7.99 1.474-10.483.878-.652 1.841-1.078 2.861-1.333l11.702-3.569 7.339-10.484c2.38-3.371 7.027-4.193 10.399-1.842.794.537 1.446 1.219 1.927 1.954zm-27.682 189.078c-4.137 0-7.48-3.345-7.48-7.481 0-4.137 3.344-7.509 7.48-7.509h64.716c4.137 0 7.509 3.372 7.509 7.509s-3.372 7.481-7.509 7.481zm32.358-56.699c15.556 0 30.006 3.202 41.85 8.642v-58.708h-24.85c-4.136 0-7.508-3.373-7.508-7.51 0-4.136 3.372-7.479 7.508-7.479h153.744c4.137 0 7.48 3.344 7.48 7.479v188.878c0 8.869-3.598 16.916-9.435 22.725-5.837 5.837-13.884 9.465-22.725 9.465-97.358 0-194.743 0-292.101 0-8.869 0-16.916-3.628-22.724-9.465-5.837-5.809-9.464-13.855-9.464-22.725v-188.878c0-4.136 3.372-7.479 7.509-7.479h153.743c4.137 0 7.508 3.344 7.508 7.479 0 4.137-3.372 7.51-7.508 7.51h-24.85v58.708c11.816-5.44 26.295-8.642 41.823-8.642zm56.839 17.823c10.427 8.473 16.661 19.353 16.661 31.395 0 12.015-6.234 22.923-16.661 31.366v67.918h29.411v-198.568h-29.411zm-14.989 71.969c-11.844 5.44-26.294 8.643-41.85 8.643-15.527 0-30.006-3.202-41.822-8.643v58.709h83.672zm-98.689-9.209c-10.399-8.443-16.633-19.352-16.633-31.366 0-12.042 6.234-22.922 16.633-31.395v-67.889h-29.412v82.311c0 4.137-3.343 7.479-7.48 7.479s-7.509-3.343-7.509-7.479v-82.311h-14.621v198.568h14.621v-82.31c0-4.138 3.372-7.509 7.509-7.509s7.48 3.371 7.48 7.509v82.311h29.412zm99.51-54.544c-10.795-6.828-25.869-11.05-42.672-11.05-16.802 0-31.876 4.222-42.671 11.05-8.019 5.072-15.811 13.119-15.811 23.178 0 10.06 7.792 18.078 15.811 23.178 10.795 6.829 25.869 11.051 42.671 11.051 16.803 0 31.876-4.222 42.672-11.051 8.047-5.1 15.811-13.118 15.811-23.178 0-10.058-7.764-18.105-15.811-23.178zm-102.684-241.097-1.502-5.525-94.637 5.78c-14.196.878-20.6-9.917-21.478-24.311-.425-6.715.481-14.365 2.408-21.676 1.899-7.339 4.874-14.422 8.557-20.004 7.82-11.815 18.616-17.624 30.771-9.578l69.646 46.072c.34-3.059 1.332-6.007 2.862-8.642 2.862-4.931 7.594-8.812 13.516-10.398l28.589-7.65c8.898-2.38 18.248 1.021 23.688 8.302l37.26-74.746c6.489-13.035 18.787-13.404 31.424-7.085 6.007 2.975 12.098 7.65 17.454 13.062 5.327 5.384 9.945 11.561 12.949 17.566 6.432 12.921 6.262 25.444-6.488 31.792l-84.862 42.305 1.502 5.553 105.234-28.222c17.058-4.562 34.795 5.668 39.385 22.725l10.06 37.6c1.077 3.996-1.304 8.075-5.299 9.152-49.5 13.261-99.001 26.521-148.501 39.782-3.995 1.076-8.103-1.304-9.152-5.299-1.077-3.996 1.303-8.076 5.299-9.152l24.027-6.433-12.582-46.921c-26.946 7.226-53.921 14.423-80.867 21.647l12.581 46.923 24.028-6.432c3.995-1.077 8.104 1.303 9.152 5.298 1.077 3.996-1.304 8.104-5.298 9.18l-148.502 39.782c-3.995 1.077-8.104-1.303-9.152-5.298l-10.059-37.543c-4.59-17.087 5.667-34.823 22.725-39.386 35.077-9.406 70.184-18.813 105.262-28.22zm57.179-15.301c-1.871-6.999-3.74-13.998-5.611-20.997-1.048-3.909-5.071-6.204-8.954-5.184l-28.618 7.679c-1.927.511-3.485 1.786-4.42 3.429-.936 1.615-1.275 3.599-.737 5.526l5.61 20.994zm20.854-30.092 70.298-35.049c3.202-1.587 2.409-6.348-.255-11.702-2.324-4.647-5.951-9.492-10.172-13.77-4.193-4.251-8.925-7.878-13.459-10.145-5.072-2.521-9.633-3.089-11.362.369zm-175.051 30.715 78.402-4.789-65.51-43.38c-3.23-2.124-6.914.624-10.03 5.355-2.805 4.223-5.101 9.718-6.602 15.527-1.53 5.809-2.238 11.844-1.927 17.029.369 5.951 2.098 10.485 5.667 10.258zm234.497-6.659 12.58 46.923 14.139-3.77-12.581-46.921zm-1.898 50.805-12.552-46.922-28.448 7.622 12.581 46.922zm30.488-58.455 12.58 46.922 31.281-8.386-8.103-30.318c-2.465-9.151-11.929-14.593-21.053-12.155zm-168.704 95.488-12.552-46.922-28.448 7.622 12.581 46.922zm-69.59-31.65 12.581 46.922 14.111-3.77-12.552-46.922zm-1.898 50.804-12.58-46.922-14.678 3.938c-9.152 2.466-14.592 11.929-12.155 21.053l8.132 30.318zm3.287 277.904v-198.567h-32.358v181.368c0 4.732 1.926 9.012 5.043 12.127 3.117 3.118 7.396 5.072 12.127 5.072zm246.708-82.31c0-4.138 3.372-7.509 7.509-7.509s7.508 3.371 7.508 7.509v82.311h15.188c4.704 0 9.01-1.954 12.127-5.072 3.117-3.115 5.044-7.396 5.044-12.127v-181.369h-32.358v82.311c0 4.137-3.372 7.479-7.508 7.479-4.137 0-7.509-3.343-7.509-7.479v-82.311h-14.592v198.567h14.592v-82.31zm70.95-239.938 15.414 22.016 25.812 7.905c3.967 1.19 6.177 5.355 4.987 9.294-.284.907-.737 1.784-1.304 2.522l-16.122 21.421.453 27.002c.057 4.108-3.23 7.509-7.338 7.594-.963 0-1.955-.198-2.833-.481l-25.275-8.699-25.529 8.784c-3.938 1.332-8.189-.737-9.52-4.647-.368-1.048-.482-2.124-.368-3.173l.453-26.379-16.264-21.592c-2.494-3.286-1.842-7.989 1.444-10.483.879-.651 1.871-1.105 2.862-1.332l25.303-7.735 15.499-22.129c2.38-3.372 7.026-4.193 10.398-1.842.795.538 1.418 1.217 1.928 1.954zm4.647 32.67-10.853-15.499-10.795 15.414c-.935 1.388-2.295 2.437-3.996 2.976l-18.077 5.524 11.221 14.876c1.048 1.416 1.672 3.031 1.644 4.845l-.312 18.899c5.95-2.039 11.957-4.053 17.879-6.149 1.53-.509 3.23-.565 4.873 0l17.908 6.149-.34-18.389c-.142-1.786.34-3.6 1.502-5.129l11.362-15.103-18.049-5.524c-1.558-.482-2.947-1.445-3.967-2.89zm-112.176-12.638 11.476 16.377 19.239 5.866c3.967 1.218 6.177 5.383 4.987 9.321-.283.964-.793 1.843-1.388 2.607l-11.901 15.839.34 20.117c.057 4.108-3.23 7.509-7.339 7.594-.963 0-1.955-.198-2.833-.481l-18.758-6.46-19.069 6.545c-3.91 1.332-8.16-.737-9.492-4.647-.368-1.048-.482-2.124-.368-3.173l.312-19.494-12.099-16.094c-2.493-3.315-1.841-7.991 1.445-10.484.879-.679 1.842-1.104 2.862-1.331l18.729-5.725 11.561-16.491c2.352-3.398 6.999-4.221 10.37-1.841.792.539 1.444 1.191 1.926 1.955zm.708 27.032-6.885-9.86-6.857 9.776c-.935 1.358-2.323 2.437-4.023 2.946l-11.476 3.514 6.97 9.265c1.133 1.502 1.786 3.004 1.757 4.987l-.199 12.014c3.797-1.304 7.594-2.578 11.391-3.91 1.502-.51 3.202-.566 4.845 0l11.39 3.91-.198-11.504c-.142-1.785.34-3.627 1.502-5.156l7.226-9.605-11.476-3.514c-1.559-.454-2.947-1.446-3.967-2.863zm-88.149 15.329-2.72-3.854-2.635 3.769c-.935 1.389-2.295 2.437-3.996 2.975l-4.477 1.36 2.692 3.57c1.048 1.389 1.643 3.06 1.615 4.817l-.085 4.675c1.501-.511 2.975-.992 4.477-1.53 1.501-.509 3.202-.566 4.845 0l4.449 1.53-.057-4.194c-.142-1.756.311-3.598 1.473-5.127l2.834-3.741-4.477-1.36c-1.529-.482-2.946-1.445-3.938-2.89z"/></g></svg>