<svg id="Capa_1" enable-background="new 0 0 520.95 520.95" height="512" viewBox="0 0 520.95 520.95" width="512" xmlns="http://www.w3.org/2000/svg"><g><g id="Filled_14_"><path d="m90.475 74.475 10 34s-10 61.333-10 152 10 152 10 152l-10 34h340l-10-34s10-61.333 10-152-10-152-10-152l10-34z" fill="#e46a4a"/><path d="m99.299 416.475-8.824 30h340l-8.823-30z" fill="#db380e"/><g fill="#faef93"><path d="m90.475 506.475 28.331-20 28.331 20 28.333-20 28.327 20 28.33-20 28.331 20 28.334-20 28.334 20 28.336-20 28.335 20 28.339-20 28.339 20v-60h-340z"/><path d="m430.475 14.475-28.339 20-28.339-20-28.335 20-28.336-20-28.334 20-28.334-20-28.331 20-28.33-20-28.327 20-28.333-20-28.331 20-28.331-20v60h340z"/><path d="m193.54 107.506 82.224 69.743c9.228 7.827 5.867 22.796-5.821 25.928l-118.561 31.768c-11.688 3.132-22.083-8.152-18.005-19.544l36.337-101.511c3.532-9.867 15.834-13.163 23.826-6.384z"/><path d="m398.327 235.165-19.287 106.08c-2.165 11.905-16.809 16.479-25.365 7.923l-86.792-86.792c-8.556-8.556-3.981-23.2 7.923-25.365l106.08-19.287c10.309-1.875 19.315 7.131 17.441 17.441z"/><path d="m130.724 300.065 19.287 106.08c2.164 11.905 16.809 16.479 25.365 7.923l86.792-86.792c8.556-8.556 3.981-23.2-7.923-25.365l-106.08-19.287c-10.31-1.875-19.316 7.131-17.441 17.441z"/></g><path d="m275.764 177.249-5.071-4.301c-.248.08-.494.161-.75.229l-118.561 31.768c-5.005 1.341-9.768.034-13.264-2.788l-4.741 13.244c-4.078 11.392 6.317 22.676 18.005 19.544l118.561-31.768c11.688-3.132 15.048-18.102 5.821-25.928z" fill="#f8e868"/><path d="m361.649 318.783-82.552-82.552-4.291.78c-11.905 2.165-16.479 16.809-7.923 25.365l86.792 86.792c8.556 8.556 23.2 3.981 25.365-7.923l3.785-20.818c-6.102 4.418-15.067 4.466-21.176-1.644z" fill="#f8e868"/><path d="m254.245 301.911-4.291-.78-82.552 82.552c-6.11 6.11-15.074 6.062-21.176 1.643l3.785 20.818c2.165 11.905 16.809 16.479 25.365 7.923l86.792-86.792c8.556-8.556 3.981-23.2-7.923-25.364z" fill="#f8e868"/></g><g id="Outline_14_"><path d="m434.333 354.998-14.954-1.173c-2.801 35.686-6.271 57.231-6.307 57.444l-.274 1.686 7.653 26.021h-319.952l7.653-26.022-.274-1.684c-.099-.608-9.902-61.87-9.902-150.794 0-25.242.783-50.591 2.329-75.345l-14.971-.935c-1.565 25.063-2.358 50.728-2.358 76.279 0 81.909 8.238 140.85 9.833 151.488l-9.833 33.432v75.555l35.831-25.294 28.331 20 28.333-20 28.327 20 28.33-20 28.33 20 28.335-20 28.334 20 28.336-20 28.335 20 28.339-20 35.839 25.293v-75.553l-9.831-33.424c.883-5.813 3.754-25.953 6.188-56.974zm-11.358 137.004-20.839-14.707-28.339 20-28.335-20-28.336 20-28.334-20-28.335 20-28.33-20-28.33 20-28.327-20-28.333 20-28.331-20-20.831 14.705v-38.025h325z"/><path d="m437.975.002-35.839 25.293-28.339-20-28.335 20-28.336-20-28.334 20-28.335-20-28.33 20-28.33-20-28.327 20-28.333-20-28.331 20-35.831-25.295v75.555l9.831 33.424c-.914 6.011-3.953 27.336-6.434 60.149l14.957 1.131c2.84-37.56 6.511-60.353 6.548-60.579l.274-1.685-7.653-26.021h219.977v-15h-222.5v-38.024l20.831 14.706 28.331-20 28.333 20 28.327-20 28.33 20 28.33-20 28.335 20 28.334-20 28.336 20 28.335-20 28.339 20 20.839-14.707v38.027h-87.5v15h84.977l-5.588 19h-54.388v15h53.517c.494 3.578 1.152 8.627 1.889 15h-35.406v15h37.011c2.641 26.691 5.489 66.574 5.489 114.5 0 26.323-.851 52.728-2.528 78.483l14.969.975c1.698-26.078 2.56-52.811 2.56-79.458 0-81.909-8.238-140.85-9.833-151.488l9.833-33.432v-75.554z"/><path d="m280.615 171.529-82.224-69.743c-5.63-4.775-13.247-6.483-20.378-4.574-7.131 1.911-12.873 7.201-15.36 14.15l-36.337 101.512c-2.829 7.906-1.053 16.653 4.637 22.828 4.328 4.698 10.325 7.261 16.519 7.261 1.946 0 3.913-.253 5.853-.773l118.561-31.768c8.11-2.173 14.291-8.613 16.13-16.806 1.837-8.193-.998-16.656-7.401-22.087zm-7.237 18.802c-.622 2.772-2.633 4.866-5.377 5.602l-118.56 31.767c-3.956 1.062-6.531-1.159-7.456-2.162-1.926-2.09-2.504-4.935-1.546-7.609l36.337-101.512c.842-2.351 2.707-4.07 5.12-4.717.659-.177 1.323-.264 1.979-.264 1.744 0 3.43.615 4.813 1.789l82.224 69.743c2.167 1.838 3.088 4.59 2.466 7.363z"/><path d="m214.285 166.134h14.999v15h-14.999z" transform="matrix(.966 -.259 .259 .966 -37.386 63.326)"/><path d="m184.114 146.266h15v15h-15z" transform="matrix(.966 -.259 .259 .966 -33.271 54.839)"/><path d="m276.148 244.39 43.36-7.884-2.684-14.758-43.359 7.884c-10.714 1.947-18.49 11.288-18.49 22.211 0 5.953 2.346 11.577 6.604 15.835l86.793 86.792c4.258 4.259 9.881 6.605 15.835 6.605 10.922 0 20.263-7.775 22.212-18.489l19.287-106.081c.246-1.351.37-2.722.37-4.076 0-12.381-10.073-22.454-22.454-22.454-1.356 0-2.728.124-4.078.37l-47.96 8.72 2.684 14.758 47.958-8.72c.468-.085.938-.128 1.396-.128 4.041 0 7.454 3.414 7.454 7.454 0 .458-.043.927-.128 1.394l-19.287 106.079c-.771 4.241-4.405 6.173-7.454 6.173-1.377 0-3.401-.383-5.228-2.21l-86.793-86.792c-1.827-1.827-2.211-3.852-2.211-5.229 0-3.05 1.932-6.683 6.173-7.454z"/><path d="m347.679 285.191h15v15h-15z" transform="matrix(.707 -.707 .707 .707 -102.936 336.856)"/><path d="m349.801 249.128h15v15h-15z" transform="matrix(.707 -.707 .707 .707 -76.809 327.835)"/><path d="m123.345 301.407 19.287 106.079c1.947 10.713 11.289 18.489 22.211 18.489 5.953 0 11.577-2.345 15.836-6.604l86.793-86.792c4.258-4.258 6.604-9.882 6.604-15.835 0-10.922-7.775-20.263-18.489-22.211l-43.36-7.884-2.684 14.758 43.36 7.884c4.241.771 6.173 4.404 6.173 7.454 0 1.377-.384 3.402-2.211 5.229l-86.793 86.792c-1.826 1.827-3.852 2.21-5.229 2.21-3.049 0-6.682-1.932-7.453-6.172l-19.287-106.078c-.085-.469-.128-.938-.128-1.396 0-4.041 3.413-7.454 7.454-7.454.459 0 .929.043 1.395.127l47.961 8.72 2.684-14.758-47.963-8.721c-1.349-.245-2.72-.369-4.076-.369-12.381 0-22.454 10.073-22.454 22.454-.001 1.354.123 2.725.369 4.078z"/><path d="m207.383 323.22h15v15h-15z" transform="matrix(.707 -.707 .707 .707 -170.919 248.82)"/><path d="m166.37 350.091h15.001v14.999h-15.001z" transform="matrix(.707 -.707 .707 .707 -201.926 227.672)"/></g><g fill="#fff"><path d="m330.475 100.975h15v15h-15z"/><path d="m170.509 188.217h14.999v15h-14.999z" transform="matrix(.966 -.259 .259 .966 -44.594 52.747)"/><path d="m306.668 258.32h15v15h-15z" transform="matrix(.707 -.707 .707 .707 -95.946 300.007)"/><path d="m164.249 314.027h15v15h-15z" transform="matrix(.707 -.707 .707 .707 -177.055 215.634)"/></g></g></svg>