<svg height="512" viewBox="0 0 512 512" width="512" xmlns="http://www.w3.org/2000/svg"><g id="filled_outline" data-name="filled outline"><path d="m32 208h96v32h-96z" fill="#e0edff"/><path d="m32 72h64v80h-64z" fill="#e0edff"/><path d="m40 24h48v48h-48z" fill="#ffc431"/><path d="m112.752 208a168.01923 168.01923 0 0 1 167.24783-152h.00034a167.99984 167.99984 0 0 1 167.99983 167.99983v48.00035a183.99981 183.99981 0 0 1 -183.99982 183.99982h-.00036a183.99981 183.99981 0 0 1 -183.99982-183.99982v-32.00018h-32v32.00022c0 119.29338 96.7064 215.99978 215.99978 215.99978h.00044c119.29338 0 215.99978-96.7064 215.99978-215.99978v-48.00042c0-110.4568-89.543-199.9998-199.9998-199.9998h-.0004c-105.0712 0-191.21823 81.024-199.36914 184z" fill="#d1e4ff"/><path d="m48 152h32v56h-32z" fill="#d1e4ff"/><path d="m264 128h64v80h-64z" fill="#e0edff" transform="matrix(0 -1 1 0 128 464)"/><path d="m208 144h48v48h-48z" fill="#ffc431" transform="matrix(0 -1 1 0 64 400)"/><path d="m80 272.00018a183.99981 183.99981 0 0 0 183.99982 183.99982h.00036a183.99981 183.99981 0 0 0 183.99982-183.99982v-40.00018a80 80 0 0 0 -80-80h-32v32h32a48 48 0 0 1 48 48v40.00015a151.99985 151.99985 0 0 1 -151.99985 151.99985h-.0003a151.99985 151.99985 0 0 1 -151.99985-151.99985v-32.00015h-32z" fill="#bdd1f2"/><path d="m280.00012 16a208.25688 208.25688 0 0 0 -176 97.08179v-41.08179a8.00008 8.00008 0 0 0 -8-8v-40a8.00008 8.00008 0 0 0 -8-8h-48a8.00009 8.00009 0 0 0 -8 8v40a8.00009 8.00009 0 0 0 -8 8v80a8.00009 8.00009 0 0 0 8 8h8v40h-8a8.00009 8.00009 0 0 0 -8 8v32a8.00009 8.00009 0 0 0 8 8h8v24a223.9999 223.9999 0 0 0 382.39209 158.3916 222.53294 222.53294 0 0 0 65.60791-158.3916v-48c0-114.69141-93.30859-208-208-208zm-192.05383 128h-47.94617v-64h48v63.87036zm-39.94617-112h32v32h-32zm8 128h16v40h-16zm-16 56h80v16h-80zm48 32h16v24c0 88.22461 71.77588 160 160 160s160-71.77539 160-160v-40a56.06322 56.06322 0 0 0 -56-56h-24v-16h24a72.08124 72.08124 0 0 1 72 72v40c0 97.04688-78.95312 176-176 176s-176-78.95312-176-176zm280-104h-24v-8a8.00008 8.00008 0 0 0 -8-8h-80a8.00009 8.00009 0 0 0 -8 8h-40a8.00009 8.00009 0 0 0 -8 8v48a8.00009 8.00009 0 0 0 8 8h40a8.00009 8.00009 0 0 0 8 8h80a8.00008 8.00008 0 0 0 8-8v-8h24a40.04552 40.04552 0 0 1 40 40v40c0 79.40234-64.59814 144-144 144s-144-64.59766-144-144v-24h8a8.00008 8.00008 0 0 0 8-8v-32a8.00008 8.00008 0 0 0 -8-8h-6.20239a160.02378 160.02378 0 0 1 158.20239-136c69.41675 0 128.64063 44.44019 150.74048 106.36108a87.73269 87.73269 0 0 0 -62.74048-26.36108zm-120 40h-32v-32h32zm16-40h64v48h-64zm208 128c0 114.69141-93.30859 208-208 208s-208-93.30859-208-208v-24h16v24c0 105.86914 86.13086 192 192 192s192-86.13086 192-192v-48c0-97.04688-78.95312-176-176-176a176.02233 176.02233 0 0 0 -174.368 152h-16.14347a192.03193 192.03193 0 0 1 190.51147-168c105.86914 0 192 86.13086 192 192z"/></g></svg>