<svg height="512pt" viewBox="-19 0 512 512.00089" width="512pt" xmlns="http://www.w3.org/2000/svg"><path d="m438.359375 363.242188-263.390625 51.171874-51.007812-262.539062 263.390624-51.171875c18.925782-3.675781 37.246094 8.683594 40.921876 27.609375l37.691406 194.007812c3.679687 18.921876-8.683594 37.246094-27.605469 40.921876zm0 0" fill="#eab9a4"/><path d="m174.96875 414.414062 107.964844-20.976562c-11.390625-52.78125-38.371094-177.65625-45.882813-210.882812-9.597656-42.472657 17.09375-55.972657 17.09375-55.972657l-130.183593 25.292969zm0 0" fill="#dd9f80"/><path d="m414.277344 424.410156-233.445313 45.351563-10.574219-54.433594 233.441407-45.355469c15.035156-2.917968 29.585937 6.898438 32.507812 21.929688 2.917969 15.035156-6.898437 29.585937-21.929687 32.507812zm0 0" fill="#d8d7da"/><path d="m180.796875 438.953125c-14.46875 2.808594-28.476563-6.640625-31.289063-21.113281l-62.332031-320.835938-66.699219-39.917968c-12.648437-7.570313-16.765624-23.960938-9.195312-36.609376 7.570312-12.648437 23.960938-16.765624 36.605469-9.195312l76.921875 46.035156c6.507812 3.894532 11.050781 10.371094 12.496094 17.8125l64.601562 332.535156c2.8125 14.46875-6.636719 28.476563-21.109375 31.289063zm0 0" fill="#d8d7da"/><path d="m124.808594 57.316406-76.921875-46.035156c-12.644531-7.574219-29.035157-3.453125-36.605469 9.195312-7.570312 12.648438-3.453125 29.035157 9.195312 36.605469l66.699219 39.917969zm0 0" fill="#ff929f"/><path d="m240.152344 445.292969c0 32.6875-26.5 59.1875-59.183594 59.1875-32.6875 0-59.1875-26.5-59.1875-59.1875s26.5-59.183594 59.1875-59.183594c32.683594 0 59.183594 26.496094 59.183594 59.183594zm0 0" fill="#acabb1"/><path d="m392.347656 282.011719-26.757812 5.199219c-11.976563 2.328124-23.574219-5.496094-25.902344-17.472657l-16.792969-86.429687c-2.324219-11.980469 5.5-23.574219 17.476563-25.902344l26.757812-5.199219c11.980469-2.328125 23.578125 5.496094 25.90625 17.472657l16.789063 86.429687c2.328125 11.980469-5.496094 23.578125-17.476563 25.902344zm0 0" fill="#ccf8ff"/><path d="m289.285156 302.035156-24.765625 4.8125c-11.082031 2.152344-21.8125-5.085937-23.96875-16.171875l-4.808593-24.761719c-2.15625-11.085937 5.085937-21.816406 16.167968-23.972656l24.765625-4.808594c11.082031-2.152343 21.816407 5.085938 23.96875 16.171876l4.8125 24.761718c2.152344 11.085938-5.089843 21.816406-16.171875 23.96875zm0 0" fill="#abebf4"/><path d="m250.207031 242.351562c-10.109375 2.867188-16.507812 13.070313-14.464843 23.574219l4.808593 24.765625c2.132813 10.984375 12.699219 18.179688 23.675781 16.210938-4.765624-21.992188-9.648437-44.496094-14.019531-64.550782zm0 0" fill="#8ed7e8"/><path d="m210.164062 445.292969c0 16.125-13.074218 29.199219-29.195312 29.199219-16.125 0-29.199219-13.074219-29.199219-29.199219s13.074219-29.195313 29.199219-29.195313c16.121094 0 29.195312 13.070313 29.195312 29.195313zm0 0" fill="#898890"/><path d="m180.96875 408.597656c-20.234375 0-36.699219 16.460938-36.699219 36.695313s16.464844 36.695312 36.699219 36.695312 36.695312-16.460937 36.695312-36.695312-16.460937-36.695313-36.695312-36.695313zm0 58.394532c-11.964844 0-21.699219-9.734376-21.699219-21.699219 0-11.960938 9.734375-21.695313 21.699219-21.695313 11.960938 0 21.695312 9.734375 21.695312 21.695313 0 11.964843-9.734374 21.699219-21.695312 21.699219zm0 0"/><path d="m473.328125 320.890625-37.691406-194.011719c-2.15625-11.117187-8.519531-20.730468-17.910157-27.0625-9.386718-6.335937-20.683593-8.636718-31.804687-6.476562l-202.757813 39.394531c-4.066406.789063-6.722656 4.726563-5.929687 8.792969.789063 4.0625 4.726563 6.722656 8.792969 5.929687l202.757812-39.390625c7.183594-1.394531 14.484375.089844 20.554688 4.183594 6.066406 4.09375 10.179687 10.304688 11.574218 17.492188l37.691407 194.007812c2.882812 14.835938-6.839844 29.246094-21.675781 32.128906l-138.871094 26.980469c-4.066406.789063-6.722656 4.726563-5.933594 8.792969.792969 4.066406 4.730469 6.71875 8.792969 5.933594l104.214843-20.246094c5.304688-1.035156 20.226563.734375 23.710938 15.996094 3.488281 15.261718-10.691406 22.683593-15.996094 23.710937l-165.28125 32.113281c.308594-5.488281.242188-25.15625-10.058594-39.257812l30.695313-5.964844c4.066406-.789062 6.71875-4.726562 5.929687-8.792969-.789062-4.0625-4.722656-6.714843-8.792968-5.929687l-38.671875 7.511718c-2.597657-2.429687-10.914063-10.484374-21.910157-13.738281l-60.089843-309.292969c-1.851563-9.519531-7.683594-17.835937-16.003907-22.816406l-76.921874-46.035156c-16.179688-9.679688-37.214844-4.398438-46.898438 11.78125-9.679688 16.175781-4.394531 37.214844 11.78125 46.894531l63.828125 38.199219 56.9375 293.082031c-4.410156 3.820313-8.355469 8.234375-11.703125 13.199219-9.964844 14.765625-13.578125 32.527344-10.183594 50.011719 3.398438 17.484375 13.402344 32.601562 28.167969 42.5625 11.148437 7.523437 24.003906 11.425781 37.15625 11.425781 27.992187 0 45.457031-14.644531 55.421875-29.410156 3.710938-5.503906 6.542969-11.425782 8.457031-17.59375l171-33.222656c9.238281-1.796876 17.222657-7.078126 22.484375-14.878907 5.261719-7.800781 7.171875-17.183593 5.378906-26.421875-1.402343-7.207031-4.9375-13.648437-10.128906-18.636718 0 .003906 48.851563-6.824219 39.886719-50.945313zm-449-270.242187c-9.078125-5.433594-12.046875-17.242188-6.613281-26.320313 5.4375-9.082031 17.246094-12.046875 26.324218-6.609375l68.890626 41.226562-27.058594 28.535157zm70.945313 48.714843 30.203124-31.847656c2.242188 2.539063 3.808594 5.652344 4.464844 9.042969l58.765625 302.484375c-6.730469-.78125-19.328125-1.9375-37.792969 6.710937zm128.539062 374.835938c-16.144531 23.878906-48.148438 29.070312-71.75 13.941406-11.625-7.449219-19.199219-19.4375-21.832031-32.988281-2.632813-13.554688.195312-27.304688 7.890625-38.765625 17.9375-26.714844 54.554687-26.140625 71.753906-13.941407 11.257812 7.988282 19.195312 19.4375 21.828125 32.992188 2.632813 13.550781-.15625 27.328125-7.890625 38.761719zm0 0"/><path d="m367.019531 294.574219 26.757813-5.199219c27.960937-5.476562 24.917968-26.933594 23.40625-34.695312l-16.789063-86.429688c-1.507812-7.757812-8.210937-28.789062-34.695312-23.40625l-26.761719 5.199219c-16.015625 3.113281-26.519531 18.675781-23.40625 34.695312l16.792969 86.429688c1.507812 7.757812 5.40625 27.605469 34.695312 23.40625zm-25.21875-129.808594 26.761719-5.195313c12.5-2.160156 16.363281 7.714844 17.109375 11.542969l16.789063 86.429688c.746093 3.824219.644531 14.449219-11.542969 17.109375l-26.757813 5.195312c-7.902344 1.53125-15.574218-3.640625-17.109375-11.542968l-16.792969-86.425782c-.742187-3.828125-.820312-13.984375 11.542969-17.113281zm0 0"/><path d="m312.816406 276.636719-4.808594-24.765625c-1.425781-7.324219-5.617187-13.660156-11.804687-17.835938-6.1875-4.175781-13.628906-5.6875-20.957031-4.265625l-24.765625 4.8125c-25.15625 5.207031-23.523438 25.433594-22.101563 32.761719l4.808594 24.761719c2.59375 13.335937 9.277344 26.378906 32.765625 22.105469l24.761719-4.8125c23.050781-4.722657 23.527344-25.433594 22.101562-32.761719zm-24.960937 18.035156-24.765625 4.8125c-7.007813 1.359375-13.8125-3.230469-15.175782-10.238281l-4.8125-24.765625c-.65625-3.394531-.707031-12.589844 10.242188-15.175781l24.761719-4.808594c11.945312-2.148438 14.515625 6.84375 15.175781 10.238281l4.8125 24.761719c.660156 3.394531 1.789062 12.8125-10.238281 15.175781zm0 0"/></svg>